<svg preserveAspectRatio="none" width="100%" height="100%" overflow="visible" style="display: block;" viewBox="0 0 90 90" fill="none" xmlns="http://www.w3.org/2000/svg">
<g id="design_services_30dp_1F1F1F_FILL1_wght600_GRAD-25_opsz24 1" clip-path="url(#clip0_0_25)">
<g id="Vector 13" filter="url(#filter0_d_0_25)">
<path d="M45 88L45 57" stroke="var(--stroke-0, #FF487B)"/>
</g>
<g id="Vector 14" filter="url(#filter1_d_0_25)">
<path d="M82.5 23.5L63.75 34.25M7.5 23.5L26.25 34.25" stroke="var(--stroke-0, #FF487B)"/>
</g>
<g id="Subtract" filter="url(#filter2_d_0_25)">
<path d="M69.2484 31V59L45.0003 73L20.7513 59V31L45.0003 17L69.2484 31ZM30.1253 37.9756L37.9124 45.7676L31.6214 52.0625V59.252H38.7825L45.0726 52.9336L52.9056 60.75L60.7503 52.8438L52.9388 45.0645L60.5589 37.4844L53.3529 30.2979L45.7943 37.9365L38.0257 30.125L30.1253 37.9756ZM52.1419 49.167L50.3333 50.9746L52.4222 53.0645L54.2279 51.2764L55.8529 52.8828L52.8841 55.8545L47.4984 50.5068L50.4906 47.5127L52.1419 49.167ZM39.6292 36.6436L37.8216 38.4512L39.8909 40.5225L41.6976 38.7363L43.3294 40.3672L40.3587 43.3604L35.0198 37.9971L37.9886 35.0039L39.6292 36.6436ZM55.6195 37.4609L52.9564 40.126L50.7083 37.8535L53.3743 35.1934L55.6195 37.4609Z" fill="var(--fill-0, #3CA8DE)"/>
</g>
<g id="Polygon 2" filter="url(#filter3_d_0_25)">
<path d="M82.6055 23.2881V66.7109L45 88.4229L7.39453 66.7109V23.2881L45 1.57617L82.6055 23.2881Z" stroke="var(--stroke-0, #FF487B)"/>
</g>
</g>
<defs>
<filter id="filter0_d_0_25" x="41.5" y="54" width="7" height="37" filterUnits="userSpaceOnUse" color-interpolation-filters="sRGB">
<feFlood flood-opacity="0" result="BackgroundImageFix"/>
<feColorMatrix in="SourceAlpha" type="matrix" values="0 0 0 0 0 0 0 0 0 0 0 0 0 0 0 0 0 0 127 0" result="hardAlpha"/>
<feOffset/>
<feGaussianBlur stdDeviation="1.5"/>
<feComposite in2="hardAlpha" operator="out"/>
<feColorMatrix type="matrix" values="0 0 0 0 1 0 0 0 0 0.282353 0 0 0 0 0.482353 0 0 0 1 0"/>
<feBlend mode="normal" in2="BackgroundImageFix" result="effect1_dropShadow_0_25"/>
<feBlend mode="normal" in="SourceGraphic" in2="effect1_dropShadow_0_25" result="shape"/>
</filter>
<filter id="filter1_d_0_25" x="4.25131" y="20.0662" width="81.4974" height="17.6175" filterUnits="userSpaceOnUse" color-interpolation-filters="sRGB">
<feFlood flood-opacity="0" result="BackgroundImageFix"/>
<feColorMatrix in="SourceAlpha" type="matrix" values="0 0 0 0 0 0 0 0 0 0 0 0 0 0 0 0 0 0 127 0" result="hardAlpha"/>
<feOffset/>
<feGaussianBlur stdDeviation="1.5"/>
<feComposite in2="hardAlpha" operator="out"/>
<feColorMatrix type="matrix" values="0 0 0 0 1 0 0 0 0 0.282353 0 0 0 0 0.482353 0 0 0 1 0"/>
<feBlend mode="normal" in2="BackgroundImageFix" result="effect1_dropShadow_0_25"/>
<feBlend mode="normal" in="SourceGraphic" in2="effect1_dropShadow_0_25" result="shape"/>
</filter>
<filter id="filter2_d_0_25" x="16.7513" y="13" width="56.4971" height="64" filterUnits="userSpaceOnUse" color-interpolation-filters="sRGB">
<feFlood flood-opacity="0" result="BackgroundImageFix"/>
<feColorMatrix in="SourceAlpha" type="matrix" values="0 0 0 0 0 0 0 0 0 0 0 0 0 0 0 0 0 0 127 0" result="hardAlpha"/>
<feOffset/>
<feGaussianBlur stdDeviation="2"/>
<feComposite in2="hardAlpha" operator="out"/>
<feColorMatrix type="matrix" values="0 0 0 0 0.152941 0 0 0 0 0.470588 0 0 0 0 0.776471 0 0 0 1 0"/>
<feBlend mode="normal" in2="BackgroundImageFix" result="effect1_dropShadow_0_25"/>
<feBlend mode="normal" in="SourceGraphic" in2="effect1_dropShadow_0_25" result="shape"/>
</filter>
<filter id="filter3_d_0_25" x="3.89488" y="-2" width="82.2102" height="94" filterUnits="userSpaceOnUse" color-interpolation-filters="sRGB">
<feFlood flood-opacity="0" result="BackgroundImageFix"/>
<feColorMatrix in="SourceAlpha" type="matrix" values="0 0 0 0 0 0 0 0 0 0 0 0 0 0 0 0 0 0 127 0" result="hardAlpha"/>
<feOffset/>
<feGaussianBlur stdDeviation="1.5"/>
<feColorMatrix type="matrix" values="0 0 0 0 1 0 0 0 0 0.282353 0 0 0 0 0.482353 0 0 0 1 0"/>
<feBlend mode="normal" in2="BackgroundImageFix" result="effect1_dropShadow_0_25"/>
<feBlend mode="normal" in="SourceGraphic" in2="effect1_dropShadow_0_25" result="shape"/>
</filter>
<clipPath id="clip0_0_25">
<rect width="90" height="90" fill="white"/>
</clipPath>
</defs>
</svg>
