<svg preserveAspectRatio="none" width="100%" height="100%" overflow="visible" style="display: block;" viewBox="0 0 57.1882 54.8116" fill="none" xmlns="http://www.w3.org/2000/svg">
<g id="dvr_24dp_E3E3E3_FILL0_wght600_GRAD0_opsz24 1" filter="url(#filter0_d_0_3)">
<path id="Vector" d="M20.6759 30.7708C21.2002 30.7708 21.6401 30.5888 21.9956 30.2248C22.3513 29.8608 22.5292 29.4097 22.5292 28.8716C22.5292 28.3337 22.3518 27.8822 21.9972 27.5171C21.6428 27.152 21.2034 26.9695 20.679 26.9695C20.1547 26.9695 19.7148 27.1515 19.3593 27.5155C19.0036 27.8795 18.8258 28.3304 18.8258 28.8683C18.8258 29.4065 19.0031 29.8581 19.3578 30.2232C19.7122 30.5882 20.1515 30.7708 20.6759 30.7708ZM20.6759 24.2708C21.2002 24.2708 21.6401 24.0888 21.9956 23.7248C22.3513 23.3608 22.5292 22.9097 22.5292 22.3716C22.5292 21.8337 22.3518 21.3822 21.9972 21.0171C21.6428 20.652 21.2034 20.4695 20.679 20.4695C20.1547 20.4695 19.7148 20.6515 19.3593 21.0155C19.0036 21.3795 18.8258 21.8304 18.8258 22.3683C18.8258 22.9065 19.0031 23.3581 19.3578 23.7232C19.7122 24.0882 20.1515 24.2708 20.6759 24.2708ZM24.1125 30.679H38.0941V27.0613H24.1125V30.679ZM24.1125 24.179H38.0941V20.5613H24.1125V24.179ZM21.8582 42.8116V39.5616H12V12H45.1882V39.5616H35.33V42.8116H21.8582ZM16.1958 35.2554H40.9924V16.3062H16.1958V35.2554Z" fill="var(--fill-0, #3CA8DE)"/>
</g>
<defs>
<filter id="filter0_d_0_3" x="-2.40587" y="-4.09419" width="62" height="63" filterUnits="userSpaceOnUse" color-interpolation-filters="sRGB">
<feFlood flood-opacity="0" result="BackgroundImageFix"/>
<feColorMatrix in="SourceAlpha" type="matrix" values="0 0 0 0 0 0 0 0 0 0 0 0 0 0 0 0 0 0 127 0" result="hardAlpha"/>
<feOffset/>
<feGaussianBlur stdDeviation="6"/>
<feColorMatrix type="matrix" values="0 0 0 0 0.235294 0 0 0 0 0.658824 0 0 0 0 0.870588 0 0 0 0.5 0"/>
<feBlend mode="normal" in2="BackgroundImageFix" result="effect1_dropShadow_0_3"/>
<feBlend mode="normal" in="SourceGraphic" in2="effect1_dropShadow_0_3" result="shape"/>
</filter>
</defs>
</svg>
