<svg preserveAspectRatio="none" width="100%" height="100%" overflow="visible" style="display: block;" viewBox="0 0 953 597" fill="none" xmlns="http://www.w3.org/2000/svg">
<g id="Isolation_Mode" clip-path="url(#clip0_0_48)">
<path id="Vector" d="M949.275 0H0V597H953V0H949.278H949.275ZM28.8412 568.459V595.77H1.23268V567.214H28.8412V568.459ZM28.8412 538.205V565.981H1.23268V537.423H28.8412V538.205ZM28.8412 507.95V536.19H1.23268V507.634H28.8412V507.95ZM28.8412 480.023V506.401H1.23268V477.846H28.8412V480.023ZM28.8412 449.768V476.613H1.23268V448.057H28.8412V449.768ZM28.8412 419.514V446.824H1.23268V418.269H28.8412V419.517V419.514ZM28.8412 389.259V417.036H1.23268V388.48H28.8412V389.262V389.259ZM28.8412 359.005V387.245H1.23268V358.689H28.8412V359.005ZM28.8412 331.077V357.456H1.23268V328.901H28.8412V331.077ZM28.8412 300.823V327.668H1.23268V299.112H28.8412V300.823ZM28.8412 270.568V297.879H1.23268V269.324H28.8412V270.568ZM28.8412 240.314V268.091H1.23268V239.532H28.8412V240.314ZM28.8412 210.059V238.299H1.23268V209.744H28.8412V210.059ZM28.8412 182.132V208.511H1.23268V179.955H28.8412V182.132ZM28.8412 151.877V178.722H1.23268V150.167H28.8412V151.877ZM28.8412 121.623V148.934H1.23268V120.378H28.8412V121.623ZM28.8412 91.3683V119.145H1.23268V90.5896H28.8412V91.3712V91.3683ZM28.8412 61.1138V89.3566H1.23268V60.8011H28.8412V61.1167V61.1138ZM28.8412 33.1865V59.5652H1.23268V31.0097H28.8412V33.1865ZM28.8412 2.93195V29.7767H1.23268V1.23295H28.8412V2.94375V2.93195ZM57.6823 568.447V595.758H30.0738V567.203H57.6823V568.447ZM57.6823 538.193V565.97H30.0738V537.411H57.6823V538.193ZM57.6823 507.938V536.178H30.0738V507.623H57.6823V507.938ZM57.6823 480.011V506.39H30.0738V477.834H57.6823V480.011ZM57.6823 449.756V476.601H30.0738V448.046H57.6823V449.756ZM57.6823 419.502V446.813H30.0738V418.257H57.6823V419.505V419.502ZM57.6823 389.247V417.024H30.0738V388.469H57.6823V389.25V389.247ZM57.6823 358.993V387.233H30.0738V358.677H57.6823V358.993ZM57.6823 331.066V357.444H30.0738V328.889H57.6823V331.066ZM57.6823 300.811V327.656H30.0738V299.1H57.6823V300.811ZM57.6823 270.556V297.867H30.0738V269.312H57.6823V270.556ZM57.6823 240.302V268.079H30.0738V239.52H57.6823V240.302ZM57.6823 210.047V238.287H30.0738V209.732H57.6823V210.047ZM57.6823 182.12V208.499H30.0738V179.943H57.6823V182.12ZM57.6823 151.866V178.71H30.0738V150.155H57.6823V151.866ZM57.6823 121.611V148.922H30.0738V120.366H57.6823V121.611ZM57.6823 91.3565V119.133H30.0738V90.5778H57.6823V91.3595V91.3565ZM57.6823 61.102V89.3448H30.0738V60.7893H57.6823V61.1049V61.102ZM57.6823 33.1747V59.5534H30.0738V30.9979H57.6823V33.1747ZM57.6823 2.92015V29.7649H30.0738V1.23295H57.6823V2.94375V2.92015ZM86.5235 568.436V595.746H58.915V567.191H86.5235V568.436ZM86.5235 538.181V565.958H58.915V537.399H86.5235V538.181ZM86.5235 507.926V536.166H58.915V507.611H86.5235V507.926ZM86.5235 479.999V506.378H58.915V477.822H86.5235V479.999ZM86.5235 449.745V476.589H58.915V448.034H86.5235V449.745ZM86.5235 419.49V446.801H58.915V418.245H86.5235V419.493V419.49ZM86.5235 389.236V417.012H58.915V388.457H86.5235V389.239V389.236ZM86.5235 358.981V387.221H58.915V358.665H86.5235V358.981ZM86.5235 331.054V357.432H58.915V328.877H86.5235V331.054ZM86.5235 300.799V327.644H58.915V299.088H86.5235V300.799ZM86.5235 270.545V297.855H58.915V269.3H86.5235V270.545ZM86.5235 240.29V268.067H58.915V239.508H86.5235V240.29ZM86.5235 210.036V238.276H58.915V209.72H86.5235V210.036ZM86.5235 182.108V208.487H58.915V179.931H86.5235V182.108ZM86.5235 151.854V178.699H58.915V150.143H86.5235V151.854ZM86.5235 121.599V148.91H58.915V120.354H86.5235V121.599ZM86.5235 91.3447V119.122H58.915V90.566H86.5235V91.3477V91.3447ZM86.5235 61.0902V89.333H58.915V60.7775H86.5235V61.0931V61.0902ZM86.5235 33.1629V59.5416H58.915V30.9861H86.5235V33.1629ZM86.5235 2.90835V29.7531H58.915V1.23295H86.5235V2.94375V2.90835ZM115.365 568.424V595.735H87.7532V567.179H115.365V568.424ZM115.365 538.169V565.946H87.7532V537.388H115.365V538.169ZM115.365 507.915V536.155H87.7532V507.599H115.365V507.915ZM115.365 479.987V506.366H87.7532V477.811H115.365V479.987ZM115.365 449.733V476.578H87.7532V448.022H115.365V449.733ZM115.365 419.478V446.789H87.7532V418.234H115.365V419.481V419.478ZM115.365 389.224V417.001H87.7532V388.445H115.365V389.227V389.224ZM115.365 358.969V387.209H87.7532V358.654H115.365V358.969ZM115.365 331.042V357.421H87.7532V328.865H115.365V331.042ZM115.365 300.787V327.632H87.7532V299.077H115.365V300.787ZM115.365 270.533V297.844H87.7532V269.288H115.365V270.533ZM115.365 240.278V268.055H87.7532V239.497H115.365V240.278ZM115.365 210.024V238.264H87.7532V209.708H115.365V210.024ZM115.365 182.097V208.475H87.7532V179.92H115.365V182.097ZM115.365 151.842V178.687H87.7532V150.131H115.365V151.842ZM115.365 121.587V148.898H87.7532V120.343H115.365V121.587ZM115.365 91.3329V119.11H87.7532V90.5542H115.365V91.3359V91.3329ZM115.365 61.0784V89.3212H87.7532V60.7657H115.365V61.0813V61.0784ZM115.365 33.1511V59.5298H87.7532V30.9743H115.365V33.1511ZM115.365 2.89655V29.7413H87.7532V1.23295H115.365V2.94375V2.89655ZM144.206 568.412V595.723H116.597V567.167H144.206V568.412ZM144.206 538.157V565.934H116.597V537.376H144.206V538.157ZM144.206 507.903V536.143H116.597V507.587H144.206V507.903ZM144.206 479.976V506.354H116.597V477.799H144.206V479.976ZM144.206 449.721V476.566H116.597V448.01H144.206V449.721ZM144.206 419.467V446.777H116.597V418.222H144.206V419.469V419.467ZM144.206 389.212V416.989H116.597V388.433H144.206V389.215V389.212ZM144.206 358.957V387.197H116.597V358.642H144.206V358.957ZM144.206 331.03V357.409H116.597V328.853H144.206V331.03ZM144.206 300.776V327.62H116.597V299.065H144.206V300.776ZM144.206 270.521V297.832H116.597V269.276H144.206V270.521ZM144.206 240.267V268.043H116.597V239.485H144.206V240.267ZM144.206 210.012V238.252H116.597V209.696H144.206V210.012ZM144.206 182.085V208.463H116.597V179.908H144.206V182.085ZM144.206 151.83V178.675H116.597V150.119H144.206V151.83ZM144.206 121.576V148.886H116.597V120.331H144.206V121.576ZM144.206 91.3211V119.098H116.597V90.5424H144.206V91.3241V91.3211ZM144.206 61.0666V89.3094H116.597V60.7539H144.206V61.0695V61.0666ZM144.206 33.1393V59.518H116.597V30.9625H144.206V33.1393ZM144.206 2.88476V29.7295H116.597V1.23295H144.206V2.94375V2.88476ZM173.047 568.4V595.711H145.439V567.155H173.047V568.4ZM173.047 538.146V565.922H145.439V537.364H173.047V538.146ZM173.047 507.891V536.131H145.439V507.575H173.047V507.891ZM173.047 479.964V506.343H145.439V477.787H173.047V479.964ZM173.047 449.709V476.554H145.439V447.998H173.047V449.709ZM173.047 419.455V446.766H145.439V418.21H173.047V419.458V419.455ZM173.047 389.2V416.977H145.439V388.421H173.047V389.203V389.2ZM173.047 358.946V387.186H145.439V358.63H173.047V358.946ZM173.047 331.018V357.397H145.439V328.842H173.047V331.018ZM173.047 300.764V327.609H145.439V299.053H173.047V300.764ZM173.047 270.509V297.82H145.439V269.265H173.047V270.509ZM173.047 240.255V268.032H145.439V239.473H173.047V240.255ZM173.047 210V238.24H145.439V209.685H173.047V210ZM173.047 182.073V208.452H145.439V179.896H173.047V182.073ZM173.047 151.818V178.663H145.439V150.108H173.047V151.818ZM173.047 121.564V148.875H145.439V120.319H173.047V121.564ZM173.047 91.3093V119.086H145.439V90.5306H173.047V91.3123V91.3093ZM173.047 61.0548V89.2976H145.439V60.7421H173.047V61.0577V61.0548ZM173.047 33.1275V59.5062H145.439V30.9507H173.047V33.1275ZM173.047 2.87296V29.7177H145.439V1.23295H173.047V2.94375V2.87296ZM201.888 568.388V595.699H174.28V567.144H201.888V568.388ZM201.888 538.134V565.911H174.28V537.352H201.888V538.134ZM201.888 507.879V536.119H174.28V507.564H201.888V507.879ZM201.888 479.952V506.331H174.28V477.775H201.888V479.952ZM201.888 449.697V476.542H174.28V447.987H201.888V449.697ZM201.888 419.443V446.754H174.28V418.198H201.888V419.446V419.443ZM201.888 389.188V416.965H174.28V388.41H201.888V389.191V389.188ZM201.888 358.934V387.174H174.28V358.618H201.888V358.934ZM201.888 331.007V357.385H174.28V328.83H201.888V331.007ZM201.888 300.752V327.597H174.28V299.041H201.888V300.752ZM201.888 270.497V297.808H174.28V269.253H201.888V270.497ZM201.888 240.243V268.02H174.28V239.461H201.888V240.243ZM201.888 209.988V238.228H174.28V209.673H201.888V209.988ZM201.888 182.061V208.44H174.28V179.884H201.888V182.061ZM201.888 151.807V178.651H174.28V150.096H201.888V151.807ZM201.888 121.552V148.863H174.28V120.307H201.888V121.552ZM201.888 91.2975V119.074H174.28V90.5188H201.888V91.3005V91.2975ZM201.888 61.043V89.2859H174.28V60.7303H201.888V61.0459V61.043ZM201.888 33.1157V59.4944H174.28V30.9389H201.888V33.1157ZM201.888 2.86116V29.7059H174.28V1.23295H201.888V2.94375V2.86116ZM230.729 568.377V595.687H203.121V567.132H230.729V568.377ZM230.729 538.122V565.899H203.121V537.34H230.729V538.122ZM230.729 507.867V536.107H203.121V507.552H230.729V507.867ZM230.729 479.94V506.319H203.121V477.763H230.729V479.94ZM230.729 449.686V476.53H203.121V447.975H230.729V449.686ZM230.729 419.431V446.742H203.121V418.186H230.729V419.434V419.431ZM230.729 389.177V416.953H203.121V388.398H230.729V389.18V389.177ZM230.729 358.922V387.162H203.121V358.606H230.729V358.922ZM230.729 330.995V357.373H203.121V328.818H230.729V330.995ZM230.729 300.74V327.585H203.121V299.029H230.729V300.74ZM230.729 270.486V297.796H203.121V269.241H230.729V270.486ZM230.729 240.231V268.008H203.121V239.449H230.729V240.231ZM230.729 209.977V238.217H203.121V209.661H230.729V209.977ZM230.729 182.049V208.428H203.121V179.872H230.729V182.049ZM230.729 151.795V178.64H203.121V150.084H230.729V151.795ZM230.729 121.54V148.851H203.121V120.295H230.729V121.54ZM230.729 91.2857V119.063H203.121V90.507H230.729V91.2887V91.2857ZM230.729 61.0312V89.2741H203.121V60.7185H230.729V61.0341V61.0312ZM230.729 33.1039V59.4826H203.121V30.9271H230.729V33.1039ZM230.729 2.84936V29.6941H203.121V1.23295H230.729V2.94375V2.84936ZM259.571 568.365V595.676H231.962V567.12H259.571V568.365ZM259.571 538.11V565.887H231.962V537.329H259.571V538.11ZM259.571 507.856V536.096H231.962V507.54H259.571V507.856ZM259.571 479.928V506.307H231.962V477.752H259.571V479.928ZM259.571 449.674V476.519H231.962V447.963H259.571V449.674ZM259.571 419.419V446.73H231.962V418.175H259.571V419.422V419.419ZM259.571 389.165V416.942H231.962V388.386H259.571V389.168V389.165ZM259.571 358.91V387.15H231.962V358.595H259.571V358.91ZM259.571 330.983V357.362H231.962V328.806H259.571V330.983ZM259.571 300.728V327.573H231.962V299.018H259.571V300.728ZM259.571 270.474V297.785H231.962V269.229H259.571V270.474ZM259.571 240.219V267.996H231.962V239.438H259.571V240.219ZM259.571 209.965V238.205H231.962V209.649H259.571V209.965ZM259.571 182.038V208.416H231.962V179.861H259.571V182.038ZM259.571 151.783V178.628H231.962V150.072H259.571V151.783ZM259.571 121.528V148.839H231.962V120.284H259.571V121.528ZM259.571 91.2739V119.051H231.962V90.4952H259.571V91.2769V91.2739ZM259.571 61.0194V89.2623H231.962V60.7067H259.571V61.0223V61.0194ZM259.571 33.0921V59.4708H231.962V30.9153H259.571V33.0921ZM259.571 2.83756V29.6823H231.962V1.23295H259.571V2.94375V2.83756ZM288.412 568.353V595.664H260.803V567.108H288.412V568.353ZM288.412 538.098V565.875H260.803V537.317H288.412V538.098ZM288.412 507.844V536.084H260.803V507.528H288.412V507.844ZM288.412 479.917V506.295H260.803V477.74H288.412V479.917ZM288.412 449.662V476.507H260.803V447.951H288.412V449.662ZM288.412 419.408V446.718H260.803V418.163H288.412V419.41V419.408ZM288.412 389.153V416.93H260.803V388.374H288.412V389.156V389.153ZM288.412 358.898V387.138H260.803V358.583H288.412V358.898ZM288.412 330.971V357.35H260.803V328.794H288.412V330.971ZM288.412 300.717V327.561H260.803V299.006H288.412V300.717ZM288.412 270.462V297.773H260.803V269.217H288.412V270.462ZM288.412 240.208V267.984H260.803V239.426H288.412V240.208ZM288.412 209.953V238.193H260.803V209.637H288.412V209.953ZM288.412 182.026V208.404H260.803V179.849H288.412V182.026ZM288.412 151.771V178.616H260.803V150.06H288.412V151.771ZM288.412 121.517V148.827H260.803V120.272H288.412V121.517ZM288.412 91.2621V119.039H260.803V90.4834H288.412V91.2651V91.2621ZM288.412 61.0076V89.2505H260.803V60.6949H288.412V61.0105V61.0076ZM288.412 33.0803V59.459H260.803V30.9035H288.412V33.0803ZM288.412 2.82576V29.6705H260.803V1.23295H288.412V2.94375V2.82576ZM317.253 568.341V595.652H289.644V567.096H317.253V568.341ZM317.253 538.087V565.863H289.644V537.305H317.253V538.087ZM317.253 507.832V536.072H289.644V507.516H317.253V507.832ZM317.253 479.905V506.284H289.644V477.728H317.253V479.905ZM317.253 449.65V476.495H289.644V447.939H317.253V449.65ZM317.253 419.396V446.707H289.644V418.151H317.253V419.399V419.396ZM317.253 389.141V416.918H289.644V388.362H317.253V389.144V389.141ZM317.253 358.887V387.127H289.644V358.571H317.253V358.887ZM317.253 330.959V357.338H289.644V328.783H317.253V330.959ZM317.253 300.705V327.55H289.644V298.994H317.253V300.705ZM317.253 270.45V297.761H289.644V269.206H317.253V270.45ZM317.253 240.196V267.973H289.644V239.414H317.253V240.196ZM317.253 209.941V238.181H289.644V209.626H317.253V209.941ZM317.253 182.014V208.393H289.644V179.837H317.253V182.014ZM317.253 151.759V178.604H289.644V150.049H317.253V151.759ZM317.253 121.505V148.816H289.644V120.26H317.253V121.505ZM317.253 91.2503V119.027H289.644V90.4716H317.253V91.2533V91.2503ZM317.253 60.9958V89.2387H289.644V60.6831H317.253V60.9987V60.9958ZM317.253 33.0685V59.4472H289.644V30.8917H317.253V33.0685ZM317.253 2.81396V29.6587H289.644V1.23295H317.253V2.94375V2.81396ZM346.094 568.329V595.64H318.486V567.085H346.094V568.329ZM346.094 538.075V565.852H318.486V537.293H346.094V538.075ZM346.094 507.82V536.06H318.486V507.505H346.094V507.82ZM346.094 479.893V506.272H318.486V477.716H346.094V479.893ZM346.094 449.638V476.483H318.486V447.928H346.094V449.638ZM346.094 419.384V446.695H318.486V418.139H346.094V419.387V419.384ZM346.094 389.129V416.906H318.486V388.351H346.094V389.132V389.129ZM346.094 358.875V387.115H318.486V358.559H346.094V358.875ZM346.094 330.948V357.326H318.486V328.771H346.094V330.948ZM346.094 300.693V327.538H318.486V298.982H346.094V300.693ZM346.094 270.438V297.749H318.486V269.194H346.094V270.438ZM346.094 240.184V267.961H318.486V239.402H346.094V240.184ZM346.094 209.929V238.169H318.486V209.614H346.094V209.929ZM346.094 182.002V208.381H318.486V179.825H346.094V182.002ZM346.094 151.748V178.592H318.486V150.037H346.094V151.748ZM346.094 121.493V148.804H318.486V120.248H346.094V121.493ZM346.094 91.2385V119.015H318.486V90.4598H346.094V91.2415V91.2385ZM346.094 60.984V89.2269H318.486V60.6713H346.094V60.9869V60.984ZM346.094 33.0567V59.4354H318.486V30.8799H346.094V33.0567ZM346.094 2.80217V29.6469H318.486V1.23295H346.094V2.94375V2.80217ZM374.935 568.318V595.628H347.324V567.073H374.935V568.318ZM374.935 538.063V565.84H347.324V537.281H374.935V538.063ZM374.935 507.808V536.048H347.324V507.493H374.935V507.808ZM374.935 479.881V506.26H347.324V477.704H374.935V479.881ZM374.935 449.627V476.471H347.324V447.916H374.935V449.627ZM374.935 419.372V446.683H347.324V418.127H374.935V419.375V419.372ZM374.935 389.118V416.894H347.324V388.339H374.935V389.121V389.118ZM374.935 358.863V387.103H347.324V358.547H374.935V358.863ZM374.935 330.936V357.314H347.324V328.759H374.935V330.936ZM374.935 300.681V327.526H347.324V298.97H374.935V300.681ZM374.935 270.427V297.737H347.324V269.182H374.935V270.427ZM374.935 240.172V267.949H347.324V239.391H374.935V240.172ZM374.935 209.918V238.158H347.324V209.602H374.935V209.918ZM374.935 181.99V208.369H347.324V179.813H374.935V181.99ZM374.935 151.736V178.581H347.324V150.025H374.935V151.736ZM374.935 121.481V148.792H347.324V120.237H374.935V121.481ZM374.935 91.2267V119.004H347.324V90.448H374.935V91.2297V91.2267ZM374.935 60.9722V89.2151H347.324V60.6595H374.935V60.9751V60.9722ZM374.935 33.0449V59.4236H347.324V30.8681H374.935V33.0449ZM374.935 2.79037V29.6351H347.324V1.23295H374.935V2.94375V2.79037ZM403.776 568.306V595.617H376.168V567.061H403.776V568.306ZM403.776 538.051V565.828H376.168V537.27H403.776V538.051ZM403.776 507.797V536.037H376.168V507.481H403.776V507.797ZM403.776 479.869V506.248H376.168V477.693H403.776V479.869ZM403.776 449.615V476.46H376.168V447.904H403.776V449.615ZM403.776 419.36V446.671H376.168V418.116H403.776V419.363V419.36ZM403.776 389.106V416.883H376.168V388.327H403.776V389.109V389.106ZM403.776 358.851V387.091H376.168V358.536H403.776V358.851ZM403.776 330.924V357.303H376.168V328.747H403.776V330.924ZM403.776 300.669V327.514H376.168V298.959H403.776V300.669ZM403.776 270.415V297.726H376.168V269.17H403.776V270.415ZM403.776 240.16V267.937H376.168V239.379H403.776V240.16ZM403.776 209.906V238.146H376.168V209.59H403.776V209.906ZM403.776 181.979V208.357H376.168V179.802H403.776V181.979ZM403.776 151.724V178.569H376.168V150.013H403.776V151.724ZM403.776 121.469V148.78H376.168V120.225H403.776V121.469ZM403.776 91.2149V118.992H376.168V90.4362H403.776V91.2179V91.2149ZM403.776 60.9604V89.2033H376.168V60.6477H403.776V60.9633V60.9604ZM403.776 33.0331V59.4118H376.168V30.8563H403.776V33.0331ZM403.776 2.77857V29.6233H376.168V1.23295H403.776V2.94375V2.77857ZM432.618 568.294V595.605H405.009V567.049H432.618V568.294ZM432.618 538.039V565.816H405.009V537.258H432.618V538.039ZM432.618 507.785V536.025H405.009V507.469H432.618V507.785ZM432.618 479.858V506.236H405.009V477.681H432.618V479.858ZM432.618 449.603V476.448H405.009V447.892H432.618V449.603ZM432.618 419.349V446.659H405.009V418.104H432.618V419.351V419.349ZM432.618 389.094V416.871H405.009V388.315H432.618V389.097V389.094ZM432.618 358.839V387.079H405.009V358.524H432.618V358.839ZM432.618 330.912V357.291H405.009V328.735H432.618V330.912ZM432.618 300.658V327.502H405.009V298.947H432.618V300.658ZM432.618 270.403V297.714H405.009V269.158H432.618V270.403ZM432.618 240.149V267.925H405.009V239.367H432.618V240.149ZM432.618 209.894V238.134H405.009V209.578H432.618V209.894ZM432.618 181.967V208.345H405.009V179.79H432.618V181.967ZM432.618 151.712V178.557H405.009V150.001H432.618V151.712ZM432.618 121.458V148.768H405.009V120.213H432.618V121.458ZM432.618 91.2031V118.98H405.009V90.4244H432.618V91.2061V91.2031ZM432.618 60.9486V89.1915H405.009V60.6359H432.618V60.9515V60.9486ZM432.618 33.0213V59.4H405.009V30.8445H432.618V33.0213ZM432.618 2.76677V29.6115H405.009V1.23295H432.618V2.94375V2.76677ZM461.459 568.282V595.593H433.85V567.037H461.459V568.282ZM461.459 538.028V565.804H433.85V537.246H461.459V538.028ZM461.459 507.773V536.013H433.85V507.457H461.459V507.773ZM461.459 479.846V506.225H433.85V477.669H461.459V479.846ZM461.459 449.591V476.436H433.85V447.88H461.459V449.591ZM461.459 419.337V446.648H433.85V418.092H461.459V419.34V419.337ZM461.459 389.082V416.859H433.85V388.303H461.459V389.085V389.082ZM461.459 358.828V387.068H433.85V358.512H461.459V358.828ZM461.459 330.9V357.279H433.85V328.724H461.459V330.9ZM461.459 300.646V327.491H433.85V298.935H461.459V300.646ZM461.459 270.391V297.702H433.85V269.147H461.459V270.391ZM461.459 240.137V267.914H433.85V239.355H461.459V240.137ZM461.459 209.882V238.122H433.85V209.567H461.459V209.882ZM461.459 181.955V208.334H433.85V179.778H461.459V181.955ZM461.459 151.7V178.545H433.85V149.99H461.459V151.7ZM461.459 121.446V148.757H433.85V120.201H461.459V121.446ZM461.459 91.1913V118.968H433.85V90.4126H461.459V91.1943V91.1913ZM461.459 60.9368V89.1797H433.85V60.6241H461.459V60.9397V60.9368ZM461.459 33.0095V59.3882H433.85V30.8327H461.459V33.0095ZM461.459 2.75497V29.5997H433.85V1.23295H461.459V2.94375V2.75497ZM490.3 568.27V595.581H462.691V567.026H490.3V568.27ZM490.3 538.016V565.793H462.691V537.234H490.3V538.016ZM490.3 507.761V536.001H462.691V507.446H490.3V507.761ZM490.3 479.834V506.213H462.691V477.657H490.3V479.834ZM490.3 449.579V476.424H462.691V447.869H490.3V449.579ZM490.3 419.325V446.636H462.691V418.08H490.3V419.328V419.325ZM490.3 389.07V416.847H462.691V388.292H490.3V389.073V389.07ZM490.3 358.816V387.056H462.691V358.5H490.3V358.816ZM490.3 330.889V357.267H462.691V328.712H490.3V330.889ZM490.3 300.634V327.479H462.691V298.923H490.3V300.634ZM490.3 270.38V297.69H462.691V269.135H490.3V270.38ZM490.3 240.125V267.902H462.691V239.343H490.3V240.125ZM490.3 209.87V238.11H462.691V209.555H490.3V209.87ZM490.3 181.943V208.322H462.691V179.766H490.3V181.943ZM490.3 151.689V178.533H462.691V149.978H490.3V151.689ZM490.3 121.434V148.745H462.691V120.189H490.3V121.434ZM490.3 91.1795V118.956H462.691V90.4008H490.3V91.1825V91.1795ZM490.3 60.925V89.1679H462.691V60.6123H490.3V60.9279V60.925ZM490.3 32.9977V59.3764H462.691V30.8209H490.3V32.9977ZM490.3 2.74317V29.5879H462.691V1.23295H490.3V2.94375V2.74317ZM519.141 568.259V595.569H491.533V567.014H519.141V568.259ZM519.141 538.004V565.781H491.533V537.222H519.141V538.004ZM519.141 507.749V535.989H491.533V507.434H519.141V507.749ZM519.141 479.822V506.201H491.533V477.645H519.141V479.822ZM519.141 449.568V476.412H491.533V447.857H519.141V449.568ZM519.141 419.313V446.624H491.533V418.068H519.141V419.316V419.313ZM519.141 389.059V416.835H491.533V388.28H519.141V389.062V389.059ZM519.141 358.804V387.044H491.533V358.488H519.141V358.804ZM519.141 330.877V357.256H491.533V328.7H519.141V330.877ZM519.141 300.622V327.467H491.533V298.911H519.141V300.622ZM519.141 270.368V297.679H491.533V269.123H519.141V270.368ZM519.141 240.113V267.89H491.533V239.332H519.141V240.113ZM519.141 209.859V238.099H491.533V209.543H519.141V209.859ZM519.141 181.931V208.31H491.533V179.755H519.141V181.931ZM519.141 151.677V178.522H491.533V149.966H519.141V151.677ZM519.141 121.422V148.733H491.533V120.178H519.141V121.422ZM519.141 91.1677V118.945H491.533V90.389H519.141V91.1707V91.1677ZM519.141 60.9132V89.1561H491.533V60.6005H519.141V60.9161V60.9132ZM519.141 32.9859V59.3646H491.533V30.8091H519.141V32.9859ZM519.141 2.73137V29.5761H491.533V1.23295H519.141V2.94375V2.73137ZM547.982 568.247V595.558H520.374V567.002H547.982V568.247ZM547.982 537.992V565.769H520.374V537.211H547.982V537.992ZM547.982 507.738V535.978H520.374V507.422H547.982V507.738ZM547.982 479.81V506.189H520.374V477.634H547.982V479.81ZM547.982 449.556V476.401H520.374V447.845H547.982V449.556ZM547.982 419.301V446.612H520.374V418.057H547.982V419.304V419.301ZM547.982 389.047V416.824H520.374V388.268H547.982V389.05V389.047ZM547.982 358.792V387.032H520.374V358.477H547.982V358.792ZM547.982 330.865V357.244H520.374V328.688H547.982V330.865ZM547.982 300.61V327.455H520.374V298.9H547.982V300.61ZM547.982 270.356V297.667H520.374V269.111H547.982V270.356ZM547.982 240.101V267.878H520.374V239.32H547.982V240.101ZM547.982 209.847V238.087H520.374V209.531H547.982V209.847ZM547.982 181.92V208.298H520.374V179.743H547.982V181.92ZM547.982 151.665V178.51H520.374V149.954H547.982V151.665ZM547.982 121.41V148.721H520.374V120.166H547.982V121.41ZM547.982 91.1559V118.933H520.374V90.3772H547.982V91.1589V91.1559ZM547.982 60.9014V89.1443H520.374V60.5887H547.982V60.9043V60.9014ZM547.982 32.9741V59.3528H520.374V30.7973H547.982V32.9741ZM547.982 2.71958V29.5643H520.374V1.23295H547.982V2.94375V2.71958ZM576.823 568.235V595.546H549.215V566.99H576.823V568.235ZM576.823 537.98V565.757H549.215V537.199H576.823V537.98ZM576.823 507.726V535.966H549.215V507.41H576.823V507.726ZM576.823 479.799V506.177H549.215V477.622H576.823V479.799ZM576.823 449.544V476.389H549.215V447.833H576.823V449.544ZM576.823 419.29V446.6H549.215V418.045H576.823V419.292V419.29ZM576.823 389.035V416.812H549.215V388.256H576.823V389.038V389.035ZM576.823 358.78V387.02H549.215V358.465H576.823V358.78ZM576.823 330.853V357.232H549.215V328.676H576.823V330.853ZM576.823 300.599V327.443H549.215V298.888H576.823V300.599ZM576.823 270.344V297.655H549.215V269.099H576.823V270.344ZM576.823 240.09V267.866H549.215V239.308H576.823V240.09ZM576.823 209.835V238.075H549.215V209.519H576.823V209.835ZM576.823 181.908V208.286H549.215V179.731H576.823V181.908ZM576.823 151.653V178.498H549.215V149.942H576.823V151.653ZM576.823 121.399V148.709H549.215V120.154H576.823V121.399ZM576.823 91.1441V118.921H549.215V90.3654H576.823V91.1471V91.1441ZM576.823 60.8896V89.1325H549.215V60.5769H576.823V60.8925V60.8896ZM576.823 32.9623V59.341H549.215V30.7855H576.823V32.9623ZM576.823 2.70778V29.5525H549.215V1.23295H576.823V2.94375V2.70778ZM605.665 568.223V595.534H578.056V566.978H605.665V568.223ZM605.665 537.969V565.745H578.056V537.187H605.665V537.969ZM605.665 507.714V535.954H578.056V507.398H605.665V507.714ZM605.665 479.787V506.166H578.056V477.61H605.665V479.787ZM605.665 449.532V476.377H578.056V447.821H605.665V449.532ZM605.665 419.278V446.589H578.056V418.033H605.665V419.281V419.278ZM605.665 389.023V416.8H578.056V388.244H605.665V389.026V389.023ZM605.665 358.769V387.009H578.056V358.453H605.665V358.769ZM605.665 330.841V357.22H578.056V328.665H605.665V330.841ZM605.665 300.587V327.432H578.056V298.876H605.665V300.587ZM605.665 270.332V297.643H578.056V269.088H605.665V270.332ZM605.665 240.078V267.855H578.056V239.296H605.665V240.078ZM605.665 209.823V238.063H578.056V209.508H605.665V209.823ZM605.665 181.896V208.275H578.056V179.719H605.665V181.896ZM605.665 151.641V178.486H578.056V149.931H605.665V151.641ZM605.665 121.387V148.698H578.056V120.142H605.665V121.387ZM605.665 91.1323V118.909H578.056V90.3536H605.665V91.1353V91.1323ZM605.665 60.8778V89.1207H578.056V60.5651H605.665V60.8807V60.8778ZM605.665 32.9505V59.3292H578.056V30.7737H605.665V32.9505ZM605.665 2.69598V29.5407H578.056V1.23295H605.665V2.94375V2.69598ZM634.506 568.211V595.522H606.894V566.967H634.506V568.211ZM634.506 537.957V565.734H606.894V537.175H634.506V537.957ZM634.506 507.702V535.942H606.894V507.387H634.506V507.702ZM634.506 479.775V506.154H606.894V477.598H634.506V479.775ZM634.506 449.52V476.365H606.894V447.81H634.506V449.52ZM634.506 419.266V446.577H606.894V418.021H634.506V419.269V419.266ZM634.506 389.011V416.788H606.894V388.233H634.506V389.014V389.011ZM634.506 358.757V386.997H606.894V358.441H634.506V358.757ZM634.506 330.83V357.208H606.894V328.653H634.506V330.83ZM634.506 300.575V327.42H606.894V298.864H634.506V300.575ZM634.506 270.321V297.631H606.894V269.076H634.506V270.321ZM634.506 240.066V267.843H606.894V239.284H634.506V240.066ZM634.506 209.811V238.051H606.894V209.496H634.506V209.811ZM634.506 181.884V208.263H606.894V179.707H634.506V181.884ZM634.506 151.63V178.474H606.894V149.919H634.506V151.63ZM634.506 121.375V148.686H606.894V120.13H634.506V121.375ZM634.506 91.1205V118.897H606.894V90.3418H634.506V91.1235V91.1205ZM634.506 60.866V89.1089H606.894V60.5533H634.506V60.8689V60.866ZM634.506 32.9387V59.3174H606.894V30.7619H634.506V32.9387ZM634.506 2.68418V29.5289H606.894V1.23295H634.506V2.94375V2.68418ZM663.347 568.2V595.51H635.738V566.955H663.347V568.2ZM663.347 537.945V565.722H635.738V537.163H663.347V537.945ZM663.347 507.69V535.93H635.738V507.375H663.347V507.69ZM663.347 479.763V506.142H635.738V477.586H663.347V479.763ZM663.347 449.509V476.353H635.738V447.798H663.347V449.509ZM663.347 419.254V446.565H635.738V418.009H663.347V419.257V419.254ZM663.347 389V416.776H635.738V388.221H663.347V389.003V389ZM663.347 358.745V386.985H635.738V358.429H663.347V358.745ZM663.347 330.818V357.196H635.738V328.641H663.347V330.818ZM663.347 300.563V327.408H635.738V298.852H663.347V300.563ZM663.347 270.309V297.62H635.738V269.064H663.347V270.309ZM663.347 240.054V267.831H635.738V239.273H663.347V240.054ZM663.347 209.8V238.04H635.738V209.484H663.347V209.8ZM663.347 181.872V208.251H635.738V179.696H663.347V181.872ZM663.347 151.618V178.463H635.738V149.907H663.347V151.618ZM663.347 121.363V148.674H635.738V120.119H663.347V121.363ZM663.347 91.1087V118.886H635.738V90.33H663.347V91.1117V91.1087ZM663.347 60.8542V89.0971H635.738V60.5415H663.347V60.8571V60.8542ZM663.347 32.9269V59.3056H635.738V30.7501H663.347V32.9269ZM663.347 2.67238V29.5171H635.738V1.23295H663.347V2.94375V2.67238ZM692.188 568.188V595.499H664.58V566.943H692.188V568.188ZM692.188 537.933V565.71H664.58V537.152H692.188V537.933ZM692.188 507.679V535.919H664.58V507.363H692.188V507.679ZM692.188 479.751V506.13H664.58V477.575H692.188V479.751ZM692.188 449.497V476.342H664.58V447.786H692.188V449.497ZM692.188 419.242V446.553H664.58V417.998H692.188V419.245V419.242ZM692.188 388.988V416.765H664.58V388.209H692.188V388.991V388.988ZM692.188 358.733V386.973H664.58V358.418H692.188V358.733ZM692.188 330.806V357.185H664.58V328.629H692.188V330.806ZM692.188 300.551V327.396H664.58V298.841H692.188V300.551ZM692.188 270.297V297.608H664.58V269.052H692.188V270.297ZM692.188 240.042V267.819H664.58V239.261H692.188V240.042ZM692.188 209.788V238.028H664.58V209.472H692.188V209.788ZM692.188 181.861V208.239H664.58V179.684H692.188V181.861ZM692.188 151.606V178.451H664.58V149.895H692.188V151.606ZM692.188 121.351V148.662H664.58V120.107H692.188V121.351ZM692.188 91.0969V118.874H664.58V90.3182H692.188V91.0999V91.0969ZM692.188 60.8424V89.0853H664.58V60.5297H692.188V60.8453V60.8424ZM692.188 32.9151V59.2938H664.58V30.7383H692.188V32.9151ZM692.188 2.66058V29.5053H664.58V1.23295H692.188V2.94375V2.66058ZM721.029 568.176V595.487H693.421V566.931H721.029V568.176ZM721.029 537.921V565.698H693.421V537.14H721.029V537.921ZM721.029 507.667V535.907H693.421V507.351H721.029V507.667ZM721.029 479.74V506.118H693.421V477.563H721.029V479.74ZM721.029 449.485V476.33H693.421V447.774H721.029V449.485ZM721.029 419.231V446.541H693.421V417.986H721.029V419.234V419.231ZM721.029 388.976V416.753H693.421V388.197H721.029V388.979V388.976ZM721.029 358.721V386.961H693.421V358.406H721.029V358.721ZM721.029 330.794V357.173H693.421V328.617H721.029V330.794ZM721.029 300.54V327.384H693.421V298.829H721.029V300.54ZM721.029 270.285V297.596H693.421V269.04H721.029V270.285ZM721.029 240.031V267.807H693.421V239.249H721.029V240.031ZM721.029 209.776V238.016H693.421V209.46H721.029V209.776ZM721.029 181.849V208.227H693.421V179.672H721.029V181.849ZM721.029 151.594V178.439H693.421V149.883H721.029V151.594ZM721.029 121.34V148.65H693.421V120.095H721.029V121.34ZM721.029 91.0851V118.862H693.421V90.3064H721.029V91.0881V91.0851ZM721.029 60.8306V89.0735H693.421V60.5179H721.029V60.8335V60.8306ZM721.029 32.9033V59.282H693.421V30.7265H721.029V32.9033ZM721.029 2.64878V29.4935H693.421V1.23295H721.029V2.94375V2.64878ZM749.87 568.164V595.475H722.262V566.919H749.87V568.164ZM749.87 537.91V565.686H722.262V537.128H749.87V537.91ZM749.87 507.655V535.895H722.262V507.339H749.87V507.655ZM749.87 479.728V506.107H722.262V477.551H749.87V479.728ZM749.87 449.473V476.318H722.262V447.763H749.87V449.473ZM749.87 419.219V446.53H722.262V417.974H749.87V419.222V419.219ZM749.87 388.964V416.741H722.262V388.186H749.87V388.967V388.964ZM749.87 358.71V386.95H722.262V358.394H749.87V358.71ZM749.87 330.782V357.161H722.262V328.606H749.87V330.782ZM749.87 300.528V327.373H722.262V298.817H749.87V300.528ZM749.87 270.273V297.584H722.262V269.029H749.87V270.273ZM749.87 240.019V267.796H722.262V239.237H749.87V240.019ZM749.87 209.764V238.004H722.262V209.449H749.87V209.764ZM749.87 181.837V208.216H722.262V179.66H749.87V181.837ZM749.87 151.582V178.427H722.262V149.872H749.87V151.582ZM749.87 121.328V148.639H722.262V120.083H749.87V121.328ZM749.87 91.0733V118.85H722.262V90.2946H749.87V91.0763V91.0733ZM749.87 60.8188V89.0617H722.262V60.5061H749.87V60.8217V60.8188ZM749.87 32.8915V59.2702H722.262V30.7147H749.87V32.8915ZM749.87 2.63699V29.4817H722.262V1.23295H749.87V2.94375V2.63699ZM778.712 568.152V595.463H751.103V566.908H778.712V568.152ZM778.712 537.898V565.675H751.103V537.116H778.712V537.898ZM778.712 507.643V535.883H751.103V507.328H778.712V507.643ZM778.712 479.716V506.095H751.103V477.539H778.712V479.716ZM778.712 449.462V476.306H751.103V447.751H778.712V449.462ZM778.712 419.207V446.518H751.103V417.962H778.712V419.21V419.207ZM778.712 388.952V416.729H751.103V388.174H778.712V388.955V388.952ZM778.712 358.698V386.938H751.103V358.382H778.712V358.698ZM778.712 330.771V357.149H751.103V328.594H778.712V330.771ZM778.712 300.516V327.361H751.103V298.805H778.712V300.516ZM778.712 270.262V297.572H751.103V269.017H778.712V270.262ZM778.712 240.007V267.784H751.103V239.225H778.712V240.007ZM778.712 209.752V237.992H751.103V209.437H778.712V209.752ZM778.712 181.825V208.204H751.103V179.648H778.712V181.825ZM778.712 151.571V178.415H751.103V149.86H778.712V151.571ZM778.712 121.316V148.627H751.103V120.071H778.712V121.316ZM778.712 91.0615V118.838H751.103V90.2828H778.712V91.0645V91.0615ZM778.712 60.807V89.0499H751.103V60.4943H778.712V60.8099V60.807ZM778.712 32.8797V59.2584H751.103V30.7029H778.712V32.8797ZM778.712 2.62519V29.4699H751.103V1.23295H778.712V2.94375V2.62519ZM807.553 568.141V595.451H779.944V566.896H807.553V568.141ZM807.553 537.886V565.663H779.944V537.104H807.553V537.886ZM807.553 507.632V535.871H779.944V507.316H807.553V507.632ZM807.553 479.704V506.083H779.944V477.527H807.553V479.704ZM807.553 449.45V476.294H779.944V447.739H807.553V449.45ZM807.553 419.195V446.506H779.944V417.95H807.553V419.198V419.195ZM807.553 388.941V416.717H779.944V388.162H807.553V388.944V388.941ZM807.553 358.686V386.926H779.944V358.37H807.553V358.686ZM807.553 330.759V357.138H779.944V328.582H807.553V330.759ZM807.553 300.504V327.349H779.944V298.793H807.553V300.504ZM807.553 270.25V297.561H779.944V269.005H807.553V270.25ZM807.553 239.995V267.772H779.944V239.214H807.553V239.995ZM807.553 209.741V237.981H779.944V209.425H807.553V209.741ZM807.553 181.813V208.192H779.944V179.637H807.553V181.813ZM807.553 151.559V178.404H779.944V149.848H807.553V151.559ZM807.553 121.304V148.615H779.944V120.06H807.553V121.304ZM807.553 91.0497V118.827H779.944V90.271H807.553V91.0527V91.0497ZM807.553 60.7952V89.0381H779.944V60.4825H807.553V60.7981V60.7952ZM807.553 32.8679V59.2466H779.944V30.6911H807.553V32.8679ZM807.553 2.61339V29.4581H779.944V1.23295H807.553V2.94375V2.61339ZM836.394 568.129V595.44H808.785V566.884H836.394V568.129ZM836.394 537.874V565.651H808.785V537.093H836.394V537.874ZM836.394 507.62V535.86H808.785V507.304H836.394V507.62ZM836.394 479.692V506.071H808.785V477.516H836.394V479.692ZM836.394 449.438V476.283H808.785V447.727H836.394V449.438ZM836.394 419.183V446.494H808.785V417.939H836.394V419.186V419.183ZM836.394 388.929V416.706H808.785V388.15H836.394V388.932V388.929ZM836.394 358.674V386.914H808.785V358.359H836.394V358.674ZM836.394 330.747V357.126H808.785V328.57H836.394V330.747ZM836.394 300.492V327.337H808.785V298.782H836.394V300.492ZM836.394 270.238V297.549H808.785V268.993H836.394V270.238ZM836.394 239.983V267.76H808.785V239.202H836.394V239.983ZM836.394 209.729V237.969H808.785V209.413H836.394V209.729ZM836.394 181.802V208.18H808.785V179.625H836.394V181.802ZM836.394 151.547V178.392H808.785V149.836H836.394V151.547ZM836.394 121.292V148.603H808.785V120.048H836.394V121.292ZM836.394 91.0379V118.815H808.785V90.2592H836.394V91.0409V91.0379ZM836.394 60.7834V89.0263H808.785V60.4707H836.394V60.7864V60.7834ZM836.394 32.8561V59.2348H808.785V30.6793H836.394V32.8561ZM836.394 2.60159V29.4463H808.785V1.23295H836.394V2.94375V2.60159ZM865.235 568.117V595.428H837.627V566.872H865.235V568.117ZM865.235 537.862V565.639H837.627V537.081H865.235V537.862ZM865.235 507.608V535.848H837.627V507.292H865.235V507.608ZM865.235 479.681V506.059H837.627V477.504H865.235V479.681ZM865.235 449.426V476.271H837.627V447.715H865.235V449.426ZM865.235 419.172V446.482H837.627V417.927H865.235V419.174V419.172ZM865.235 388.917V416.694H837.627V388.138H865.235V388.92V388.917ZM865.235 358.662V386.902H837.627V358.347H865.235V358.662ZM865.235 330.735V357.114H837.627V328.558H865.235V330.735ZM865.235 300.481V327.325H837.627V298.77H865.235V300.481ZM865.235 270.226V297.537H837.627V268.981H865.235V270.226ZM865.235 239.972V267.748H837.627V239.19H865.235V239.972ZM865.235 209.717V237.957H837.627V209.401H865.235V209.717ZM865.235 181.79V208.168H837.627V179.613H865.235V181.79ZM865.235 151.535V178.38H837.627V149.824H865.235V151.535ZM865.235 121.281V148.591H837.627V120.036H865.235V121.281ZM865.235 91.0261V118.803H837.627V90.2474H865.235V91.0291V91.0261ZM865.235 60.7716V89.0145H837.627V60.4589H865.235V60.7745V60.7716ZM865.235 32.8443V59.223H837.627V30.6675H865.235V32.8443ZM865.235 2.58979V29.4345H837.627V1.23295H865.235V2.94375V2.58979ZM894.076 568.105V595.416H866.465V566.86H894.076V568.105ZM894.076 537.851V565.627H866.465V537.069H894.076V537.851ZM894.076 507.596V535.836H866.465V507.281H894.076V507.596ZM894.076 479.669V506.048H866.465V477.492H894.076V479.669ZM894.076 449.414V476.259H866.465V447.703H894.076V449.414ZM894.076 419.16V446.471H866.465V417.915H894.076V419.163V419.16ZM894.076 388.905V416.682H866.465V388.126H894.076V388.908V388.905ZM894.076 358.651V386.891H866.465V358.335H894.076V358.651ZM894.076 330.723V357.102H866.465V328.547H894.076V330.723ZM894.076 300.469V327.314H866.465V298.758H894.076V300.469ZM894.076 270.214V297.525H866.465V268.97H894.076V270.214ZM894.076 239.96V267.737H866.465V239.178H894.076V239.96ZM894.076 209.705V237.945H866.465V209.39H894.076V209.705ZM894.076 181.778V208.157H866.465V179.601H894.076V181.778ZM894.076 151.523V178.368H866.465V149.813H894.076V151.523ZM894.076 121.269V148.58H866.465V120.024H894.076V121.269ZM894.076 91.0143V118.791H866.465V90.2356H894.076V91.0173V91.0143ZM894.076 60.7598V89.0027H866.465V60.4471H894.076V60.7628V60.7598ZM894.076 32.8325V59.2112H866.465V30.6557H894.076V32.8325ZM894.076 2.57799V29.4227H866.465V1.23295H894.076V2.94375V2.57799ZM922.917 568.093V595.404H895.309V566.849H922.917V568.093ZM922.917 537.839V565.616H895.309V537.057H922.917V537.839ZM922.917 507.584V535.824H895.309V507.269H922.917V507.584ZM922.917 479.657V506.036H895.309V477.48H922.917V479.657ZM922.917 449.402V476.247H895.309V447.692H922.917V449.402ZM922.917 419.148V446.459H895.309V417.903H922.917V419.151V419.148ZM922.917 388.893V416.67H895.309V388.115H922.917V388.896V388.893ZM922.917 358.639V386.879H895.309V358.323H922.917V358.639ZM922.917 330.712V357.09H895.309V328.535H922.917V330.712ZM922.917 300.457V327.302H895.309V298.746H922.917V300.457ZM922.917 270.203V297.513H895.309V268.958H922.917V270.203ZM922.917 239.948V267.725H895.309V239.166H922.917V239.948ZM922.917 209.693V237.933H895.309V209.378H922.917V209.693ZM922.917 181.766V208.145H895.309V179.589H922.917V181.766ZM922.917 151.512V178.356H895.309V149.801H922.917V151.512ZM922.917 121.257V148.568H895.309V120.012H922.917V121.257ZM922.917 91.0025V118.779H895.309V90.2238H922.917V91.0055V91.0025ZM922.917 60.748V88.9909H895.309V60.4353H922.917V60.751V60.748ZM922.917 32.8207V59.1994H895.309V30.6439H922.917V32.8207ZM922.917 2.56619V29.4109H895.309V1.23295H922.917V2.94375V2.56619ZM951.759 567.524V595.392H924.15V566.837H951.759V567.524ZM951.759 537.332V565.604H924.15V537.045H951.759V537.332ZM951.759 509.463V535.815H924.15V507.26H951.759V509.466V509.463ZM951.759 479.271V506.024H924.15V477.468H951.759V479.271ZM951.759 449.078V476.235H924.15V447.68H951.759V449.078ZM951.759 418.885V446.447H924.15V417.891H951.759V418.888V418.885ZM951.759 388.693V416.656H924.15V388.1H951.759V388.693ZM951.759 358.5V386.867H924.15V358.311H951.759V358.5ZM951.759 330.632V357.078H924.15V328.523H951.759V330.632ZM951.759 300.439V327.29H924.15V298.734H951.759V300.442V300.439ZM951.759 270.247V297.499H924.15V268.943H951.759V270.247ZM951.759 240.054V267.71H924.15V239.152H951.759V240.054ZM951.759 209.862V237.919H924.15V209.363H951.759V209.862ZM951.759 179.669V208.13H924.15V179.575H951.759V179.669ZM951.759 151.801V178.342H924.15V149.786H951.759V151.801ZM951.759 121.608V148.553H924.15V119.998H951.759V121.608ZM951.759 91.4155V118.765H924.15V90.2091H951.759V91.4184V91.4155ZM951.759 61.2229V88.9732H924.15V60.4176H951.759V61.2229ZM951.759 31.0303V59.1847H924.15V30.6291H951.759V31.0332V31.0303ZM951.759 3.16202V29.3962H924.15V1.23295H951.759V3.55433V3.16202Z" fill="url(#paint0_radial_0_48)"/>
</g>
<defs>
<radialGradient id="paint0_radial_0_48" cx="0" cy="0" r="1" gradientUnits="userSpaceOnUse" gradientTransform="translate(476.5 298.5) rotate(90) scale(298.5 476.5)">
<stop stop-color="#2778C6"/>
<stop offset="1" stop-color="#00030C"/>
</radialGradient>
<clipPath id="clip0_0_48">
<rect width="953" height="597" fill="white"/>
</clipPath>
</defs>
</svg>
