<svg preserveAspectRatio="none" width="100%" height="100%" overflow="visible" style="display: block;" viewBox="0 0 16.5223 20" fill="none" xmlns="http://www.w3.org/2000/svg">
<g id="Isolation_Mode" clip-path="url(#clip0_0_18)">
<path id="path154" d="M8.68129 3.6419e-07C8.55283 -0.000232785 8.419 0.00512964 8.27911 0.0163208C4.7483 0.300763 5.68463 4.03092 5.6324 5.2799C5.56782 6.19337 5.3827 6.91311 4.75436 7.8063C4.01621 8.68411 2.97706 10.1047 2.48489 11.5833C2.25267 12.2811 2.14192 12.9927 2.24404 13.6658C2.2121 13.6945 2.18156 13.7246 2.15265 13.7553C1.93605 13.9866 1.77588 14.2671 1.59752 14.4557C1.43082 14.6219 1.19324 14.6851 0.932347 14.7789C0.67122 14.8726 0.384679 15.0106 0.21075 15.3445C0.210517 15.3449 0.210051 15.3456 0.209817 15.3461C0.0522085 15.6403 0.0990715 15.9791 0.147333 16.2929C0.195362 16.6067 0.24409 16.9033 0.179508 17.1045C-0.0270621 17.6692 -0.053408 18.06 0.0920771 18.3432C0.237795 18.6272 0.537625 18.7524 0.876391 18.8233C1.55392 18.9648 2.47136 18.9296 3.19436 19.3129L3.25661 19.1956L3.19506 19.3131C3.96911 19.7179 4.75389 19.8615 5.38013 19.7186C5.83407 19.6148 6.20245 19.3446 6.39177 18.9287C6.88138 18.9263 7.41879 18.7188 8.27958 18.6715C8.86361 18.6244 9.59314 18.8788 10.4322 18.8324C10.4542 18.9233 10.4859 19.011 10.5295 19.0942C10.5299 19.0951 10.5304 19.0958 10.5309 19.0968C10.8561 19.7473 11.4604 20.0448 12.1046 19.9939C12.7495 19.9431 13.4352 19.5628 13.9896 18.903L13.888 18.8177L13.9903 18.9021C14.5186 18.2614 15.3955 17.9958 15.977 17.6452C16.2677 17.4699 16.5037 17.2502 16.5219 16.9313C16.5401 16.6126 16.3528 16.2554 15.9227 15.7777C15.9227 15.7777 15.9224 15.7772 15.9222 15.777C15.7809 15.6173 15.7133 15.3212 15.6408 15.0057C15.5683 14.6905 15.4876 14.3506 15.2288 14.1302C15.2288 14.1302 15.2279 14.1293 15.2272 14.1288C15.1241 14.0391 15.0171 13.9782 14.9094 13.9372C15.2692 12.8703 15.1281 11.8078 14.7649 10.848C14.3193 9.66986 13.5411 8.64307 12.947 7.94083C12.2818 7.10196 11.6313 6.30529 11.6442 5.12881C11.663 3.33403 11.8407 0.0044302 8.68129 3.6419e-07ZM9.10912 2.76608C9.28841 2.76608 9.44159 2.81854 9.59873 2.93278C9.75844 3.04866 9.87362 3.19391 9.96641 3.39675C10.0576 3.59423 10.1012 3.78774 10.1056 4.01693C10.1056 4.02299 10.1056 4.02812 10.1072 4.03418C10.1089 4.26966 10.0685 4.4697 9.97923 4.67417C9.92817 4.79075 9.86965 4.88867 9.79971 4.97354C9.77593 4.96211 9.75121 4.95116 9.72557 4.94066C9.54791 4.86466 9.41175 4.81616 9.2982 4.77676C9.33947 4.72733 9.37374 4.66858 9.40382 4.59514C9.44928 4.48439 9.47167 4.37598 9.4761 4.24728C9.4761 4.24215 9.47773 4.23772 9.47773 4.23189C9.48029 4.10809 9.46397 4.00247 9.42784 3.89429C9.39007 3.78098 9.34204 3.69938 9.27233 3.6313C9.20285 3.56345 9.13313 3.53244 9.0499 3.52988C9.04594 3.52964 9.04221 3.52964 9.03824 3.52964C8.95991 3.52988 8.89183 3.55669 8.82141 3.61568C8.74751 3.67746 8.69248 3.7565 8.64702 3.86655C8.60155 3.97659 8.57917 4.08571 8.57474 4.21534C8.57381 4.22047 8.57381 4.2249 8.57381 4.23002C8.57241 4.30137 8.57684 4.36665 8.5878 4.43007C8.42739 4.3501 8.27631 4.29577 8.13432 4.26197C8.12616 4.20065 8.1215 4.13723 8.1201 4.07125V4.0533C8.11754 3.81875 8.15624 3.61778 8.24647 3.4133C8.3367 3.20883 8.44838 3.06195 8.60552 2.94258C8.76266 2.8232 8.91747 2.76818 9.10026 2.76655H9.10889L9.10912 2.76608ZM6.65523 2.96029C6.77413 2.96053 6.88068 3.0004 6.99073 3.08829C7.1101 3.18365 7.20033 3.30559 7.27587 3.47742C7.35141 3.64925 7.39174 3.82108 7.40293 4.02369V4.02532C7.4083 4.11042 7.4076 4.19062 7.40107 4.26826C7.37752 4.27502 7.35444 4.28225 7.33182 4.28994C7.20359 4.33401 7.09051 4.39416 6.99213 4.45921C7.00169 4.39113 7.00308 4.32212 6.99586 4.24518C6.99492 4.24098 6.99492 4.23749 6.99492 4.23306C6.98467 4.13094 6.96322 4.0449 6.92708 3.95817C6.88837 3.86794 6.84548 3.80429 6.78882 3.75533C6.73753 3.71104 6.6888 3.69052 6.63541 3.69098C6.62981 3.69098 6.62422 3.69122 6.61862 3.69168C6.55847 3.69681 6.50858 3.72596 6.46148 3.78354C6.41415 3.84113 6.38337 3.91248 6.36099 4.0069C6.33861 4.10133 6.33255 4.19412 6.34211 4.30067C6.34211 4.30487 6.34304 4.30836 6.34304 4.31279C6.3533 4.41584 6.37405 4.50188 6.41089 4.58861C6.44866 4.6779 6.49249 4.74155 6.54914 4.79052C6.5587 4.79868 6.56803 4.80614 6.57735 4.81266C6.51837 4.85813 6.49016 4.87888 6.44189 4.91455C6.41088 4.9374 6.37405 4.96444 6.33115 4.99592C6.23766 4.90826 6.16468 4.79821 6.1008 4.65296C6.02526 4.48113 5.98492 4.3093 5.9728 4.10669V4.10506C5.96161 3.90222 5.98142 3.72782 6.03715 3.5476C6.0931 3.36714 6.16771 3.23658 6.27589 3.12933C6.38407 3.02185 6.49319 2.96776 6.62468 2.96099C6.63494 2.96053 6.6452 2.96006 6.65523 2.96029ZM7.77131 4.36688C8.04783 4.36572 8.3803 4.45641 8.78318 4.71544C9.03055 4.87631 9.22313 4.88984 9.66635 5.07962H9.66681L9.66728 5.08009C9.88061 5.16752 10.0058 5.28153 10.0669 5.40183C10.128 5.5219 10.1296 5.65223 10.0783 5.78909C9.97597 6.06304 9.64909 6.35145 9.19072 6.4946H9.19026L9.18979 6.49507C8.9662 6.56781 8.77129 6.72822 8.5414 6.85948C8.31152 6.99098 8.05156 7.09683 7.69787 7.07654C7.39687 7.05906 7.21688 6.9567 7.05414 6.82591C6.89141 6.69511 6.74965 6.53074 6.54192 6.4088H6.54145L6.54098 6.4081C6.20641 6.21902 6.02386 6.00033 5.9665 5.81078C5.90915 5.62123 5.96301 5.45942 6.12901 5.33515C6.31553 5.19526 6.44516 5.10014 6.53142 5.03695C6.61722 4.974 6.65289 4.95046 6.68017 4.92411C6.68017 4.92411 6.68041 4.92388 6.68064 4.92364C6.82076 4.79075 7.04435 4.54897 7.38125 4.4331C7.49713 4.39323 7.62653 4.36735 7.77131 4.36688ZM9.70435 5.51025C9.58498 5.51747 9.46001 5.57879 9.31476 5.65993C9.16927 5.74106 9.0056 5.84505 8.82841 5.9474C8.47379 6.15211 8.06578 6.34772 7.6601 6.34772C7.25442 6.34772 6.92918 6.16003 6.68577 5.96722C6.56406 5.8707 6.46358 5.77371 6.38337 5.6984C6.34327 5.66086 6.30853 5.62869 6.27589 5.60374C6.24348 5.57879 6.21691 5.55385 6.16258 5.55385L6.16002 5.66809C6.15605 5.70633 6.15209 5.70516 6.15372 5.70609C6.15629 5.70772 6.16888 5.71215 6.18356 5.72335C6.20735 5.74176 6.24069 5.77161 6.27986 5.80844C6.35843 5.88212 6.46311 5.98331 6.59181 6.08543C6.84921 6.28943 7.20709 6.49857 7.6601 6.49857C8.11311 6.49857 8.54257 6.28663 8.90395 6.07797C9.08464 5.97375 9.24878 5.86953 9.38843 5.79166C9.52809 5.71379 9.64536 5.66482 9.71344 5.66086L9.70435 5.51001V5.51025ZM10.1075 6.05278C10.4087 7.23998 11.1091 8.95479 11.5593 9.79156C11.7985 10.2355 12.2748 11.1788 12.4805 12.3154C12.6108 12.3114 12.7544 12.3303 12.9081 12.3697C13.4459 10.9755 12.452 9.47355 11.9976 9.05528C11.8141 8.87715 11.8053 8.79742 11.8962 8.80115C12.3893 9.23714 13.0365 10.1142 13.272 11.1042C13.3795 11.5556 13.4023 12.03 13.2872 12.4984C13.3436 12.5217 13.4007 12.5474 13.4588 12.5747C14.3221 12.995 14.6413 13.3606 14.4879 13.8596C14.4373 13.8577 14.3876 13.8579 14.3391 13.8591C14.3347 13.8591 14.33 13.8593 14.3256 13.8593C14.4506 13.4639 14.1736 13.1722 13.4357 12.8384C12.6702 12.5017 12.0603 12.535 11.9573 13.2182C11.9507 13.2538 11.9454 13.2904 11.9414 13.3273C11.8843 13.3471 11.8267 13.3725 11.7691 13.404C11.4096 13.6008 11.2135 13.9575 11.1044 14.3951C10.9953 14.8325 10.9641 15.361 10.934 15.9553C10.9156 16.2545 10.7927 16.6587 10.6682 17.0868C9.41431 17.9812 7.67385 18.3687 6.19639 17.3603C6.09637 17.202 5.98142 17.0448 5.86322 16.89C5.78768 16.7912 5.71004 16.693 5.6331 16.596C5.78488 16.596 5.91381 16.5713 6.01803 16.524C6.14766 16.4652 6.23859 16.3708 6.28359 16.2498C6.37358 16.0076 6.28312 15.6658 5.99471 15.2752C5.70631 14.8849 5.21786 14.4443 4.50023 14.0043C3.97308 13.6763 3.67814 13.2743 3.54012 12.8377C3.4021 12.4012 3.42145 11.9291 3.52776 11.463C3.732 10.5684 4.25659 9.6983 4.59139 9.15227C4.68162 9.08605 4.62356 9.27537 4.25262 9.96456C3.92015 10.5945 3.29834 12.0484 4.14957 13.1834C4.17242 12.3758 4.36523 11.5521 4.68908 10.7815C5.16074 9.71229 6.14719 7.85829 6.22553 6.38059C6.26587 6.40997 6.40482 6.5037 6.46661 6.53867C6.46661 6.53867 6.46684 6.53867 6.46707 6.53867C6.648 6.64522 6.78392 6.80096 6.95995 6.94248C7.13645 7.08424 7.35677 7.20664 7.68971 7.22599C8.07837 7.24837 8.37447 7.12807 8.61718 6.98935C8.85942 6.85085 9.05293 6.69744 9.23642 6.63752C9.23665 6.63752 9.23689 6.63752 9.23735 6.63729C9.62485 6.51605 9.93284 6.30156 10.1082 6.05162L10.1075 6.05278ZM12.5686 12.8495C12.7255 12.8488 12.9157 12.9011 13.1237 12.9943C13.6837 13.2529 13.8591 13.4746 13.7061 13.8001C13.5772 14.0458 13.0258 14.4366 12.6476 14.3335C12.262 14.234 12.0738 13.6782 12.1366 13.258C12.1701 12.9727 12.3315 12.8507 12.5684 12.8495H12.5686ZM11.9349 13.6173C11.9666 14.1309 12.2207 14.6551 12.6702 14.7684C13.1622 14.898 13.8714 14.476 14.1708 14.1316C14.2305 14.1293 14.2888 14.1263 14.3457 14.1249C14.6084 14.1186 14.8285 14.1335 15.0537 14.3303L15.0544 14.331L15.0551 14.3317C15.2281 14.4783 15.3104 14.7551 15.3815 15.0654C15.4529 15.3757 15.5098 15.7136 15.7238 15.9542H15.724L15.7243 15.9549C16.1353 16.4111 16.2675 16.7196 16.2563 16.9164C16.2451 17.1131 16.1024 17.2593 15.8394 17.4181C15.3135 17.7354 14.3811 18.0112 13.7859 18.7326C13.269 19.3479 12.6385 19.6857 12.0832 19.7295C11.528 19.7734 11.0489 19.543 10.7666 18.9762L10.7659 18.9748L10.7652 18.9737C10.5901 18.6405 10.6631 18.1145 10.8106 17.5596C10.9582 17.005 11.1702 16.4351 11.1986 15.9723V15.9709C11.2287 15.3778 11.2618 14.8598 11.3616 14.4599C11.4611 14.0603 11.618 13.7894 11.8962 13.6374C11.9092 13.6304 11.9221 13.6236 11.9347 13.6173H11.9349ZM2.90665 13.656C2.94815 13.656 2.99199 13.6597 3.03885 13.6667C3.3536 13.7143 3.62802 13.9344 3.89241 14.293C4.1568 14.6516 4.40277 15.1412 4.65574 15.6842V15.6849L4.65644 15.6856C4.85974 16.1097 5.28851 16.5762 5.65199 17.0521C6.01546 17.5279 6.29664 18.0054 6.26004 18.371V18.3726L6.2598 18.3743C6.21248 18.9977 5.86065 19.3372 5.32091 19.4605C4.78117 19.5838 4.04955 19.461 3.31863 19.0791C3.31863 19.0791 3.31816 19.0791 3.31793 19.0788C2.50937 18.6505 1.54763 18.6932 0.930481 18.5643C0.621792 18.4999 0.420584 18.4029 0.328024 18.2229C0.235697 18.0429 0.233599 17.7289 0.42991 17.1934L0.430843 17.191L0.431542 17.1887C0.528765 16.8891 0.456722 16.5613 0.409626 16.2535C0.36253 15.9458 0.339448 15.666 0.444365 15.4708L0.444832 15.4699L0.445298 15.469C0.579825 15.2097 0.777069 15.1169 1.02188 15.0293C1.26668 14.9414 1.55719 14.8724 1.78637 14.6427L1.78754 14.6415L1.7887 14.6404C2.00064 14.4168 2.15988 14.1365 2.34616 13.9374C2.50331 13.7696 2.66068 13.6583 2.89779 13.6567H2.90595L2.90665 13.656Z" fill="var(--fill-0, white)" fill-opacity="0.8"/>
</g>
<defs>
<clipPath id="clip0_0_18">
<rect width="16.5223" height="20" fill="white"/>
</clipPath>
</defs>
</svg>
