<svg preserveAspectRatio="none" width="100%" height="100%" overflow="visible" style="display: block;" viewBox="0 0 202.008 18" fill="none" xmlns="http://www.w3.org/2000/svg">
<g id="Layer_1" clip-path="url(#clip0_0_6)">
<path id="Vector" d="M12.36 0H0V15.348L12.36 2.988V0Z" fill="url(#paint0_radial_0_6)"/>
<path id="Vector_2" d="M115.596 15.84V2.184H128.484C129.66 2.184 130.704 2.328 131.604 2.616C132.516 2.904 133.224 3.372 133.74 4.02C134.256 4.668 134.52 5.52 134.52 6.6C134.52 7.308 134.4 7.908 134.148 8.388C133.896 8.868 133.548 9.252 133.092 9.552C132.636 9.84 132.12 10.056 131.544 10.188C130.968 10.32 130.356 10.404 129.72 10.428L128.784 10.212C130.128 10.212 131.184 10.284 131.964 10.428C132.732 10.572 133.296 10.824 133.632 11.184C133.968 11.544 134.136 12.072 134.136 12.768V15.852H130.08V13.2C130.08 12.72 129.996 12.348 129.816 12.096C129.636 11.844 129.3 11.664 128.784 11.568C128.28 11.472 127.512 11.424 126.492 11.424H119.676V15.864H115.596V15.84ZM119.676 8.508H128.484C129.096 8.508 129.576 8.376 129.924 8.124C130.272 7.872 130.452 7.476 130.452 6.936C130.452 6.456 130.272 6.096 129.924 5.868C129.564 5.64 129.084 5.52 128.484 5.52H119.676V8.52V8.508Z" fill="var(--fill-0, white)"/>
<path id="Vector_3" d="M136.272 15.84L144.072 2.184H148.56L156.42 15.84H151.98L145.2 3.588H147.456L140.76 15.84H136.284H136.272ZM140.376 13.332V10.524H152.184V13.332H140.376Z" fill="var(--fill-0, white)"/>
<path id="Vector_4" d="M159.348 2.184H163.452V15.84H159.348V2.184Z" fill="var(--fill-0, white)"/>
<path id="Vector_5" d="M171.816 2.184V12.636H182.58V15.84H167.736V2.184H171.816Z" fill="var(--fill-0, white)"/>
<path id="Vector_6" d="M184.98 11.016H189.336C189.408 11.4 189.66 11.736 190.104 12.048C190.548 12.348 191.124 12.576 191.844 12.744C192.564 12.9 193.392 12.972 194.328 12.972C195.264 12.972 195.936 12.924 196.488 12.816C197.028 12.708 197.424 12.552 197.664 12.324C197.904 12.108 198.024 11.82 198.024 11.484C198.024 11.148 197.856 10.908 197.508 10.728C197.16 10.548 196.572 10.416 195.744 10.32C194.916 10.224 193.776 10.152 192.336 10.08C191.244 10.02 190.272 9.912 189.408 9.744C188.544 9.576 187.812 9.336 187.212 9.024C186.612 8.712 186.156 8.328 185.856 7.86C185.556 7.404 185.4 6.852 185.4 6.216C185.4 5.28 185.7 4.476 186.288 3.816C186.888 3.156 187.776 2.652 188.976 2.304C190.176 1.968 191.652 1.8 193.428 1.8C196.044 1.8 198.048 2.244 199.452 3.144C200.844 4.044 201.54 5.304 201.528 6.936H197.412C197.34 6.288 196.944 5.808 196.212 5.496C195.48 5.184 194.496 5.028 193.272 5.028C192.048 5.028 191.184 5.136 190.524 5.352C189.864 5.568 189.54 5.94 189.54 6.468C189.54 6.708 189.624 6.912 189.804 7.068C189.984 7.224 190.272 7.356 190.68 7.476C191.088 7.596 191.664 7.68 192.396 7.752C193.128 7.824 194.064 7.896 195.18 7.968C196.344 8.028 197.352 8.136 198.204 8.292C199.056 8.46 199.776 8.688 200.34 8.988C200.904 9.288 201.336 9.672 201.612 10.14C201.888 10.608 202.032 11.16 202.032 11.832C202.032 12.78 201.756 13.584 201.192 14.232C200.628 14.88 199.764 15.372 198.576 15.708C197.388 16.044 195.852 16.212 193.932 16.212C192.756 16.212 191.688 16.116 190.74 15.936C189.78 15.756 188.94 15.492 188.22 15.144C187.5 14.808 186.9 14.412 186.42 13.98C185.94 13.536 185.58 13.068 185.352 12.576C185.124 12.084 185.004 11.568 185.004 11.028L184.98 11.016Z" fill="var(--fill-0, white)"/>
<path id="Vector_7" d="M30 0H30.012H30H17.988L0 18H16.176L24.192 9.984H30V0Z" fill="var(--fill-0, white)"/>
<path id="Vector_8" d="M49.2 15.84L42.024 2.184H46.596L52.716 14.928H51.144L57.24 2.184H61.74L54.672 15.84H49.212H49.2Z" fill="var(--fill-0, white)"/>
<path id="Vector_9" d="M64.812 2.184H68.916V15.84H64.812V2.184Z" fill="var(--fill-0, white)"/>
<path id="Vector_10" d="M73.2 15.84V2.184H83.868C86.172 2.184 87.888 2.472 89.016 3.048C90.144 3.624 90.708 4.548 90.708 5.82C90.708 6.636 90.468 7.284 90 7.728C89.52 8.184 88.86 8.508 87.996 8.688C87.132 8.868 86.088 9 84.876 9.036L85.008 8.892C85.884 8.892 86.712 8.928 87.468 8.988C88.236 9.048 88.896 9.192 89.472 9.408C90.048 9.624 90.492 9.936 90.816 10.344C91.14 10.752 91.308 11.304 91.308 12C91.308 12.876 91.044 13.596 90.504 14.16C89.964 14.724 89.208 15.144 88.236 15.42C87.264 15.708 86.112 15.84 84.792 15.84H73.212H73.2ZM77.28 7.956H83.904C84.72 7.956 85.344 7.86 85.752 7.656C86.16 7.452 86.364 7.128 86.364 6.66C86.364 6.192 86.16 5.844 85.752 5.64C85.344 5.436 84.744 5.34 83.964 5.34H77.268V7.956H77.28ZM77.28 12.648H84.624C85.464 12.648 86.076 12.54 86.484 12.324C86.892 12.108 87.084 11.76 87.084 11.28C87.084 10.956 86.976 10.704 86.76 10.536C86.544 10.368 86.244 10.248 85.86 10.2C85.476 10.14 85.02 10.116 84.492 10.116H77.268V12.648H77.28Z" fill="var(--fill-0, white)"/>
<path id="Vector_11" d="M98.808 10.104V12.636H112.188V15.84H94.728V2.184H112.14V5.388H98.796V7.92H109.728V10.104H98.796H98.808Z" fill="var(--fill-0, white)"/>
</g>
<defs>
<radialGradient id="paint0_radial_0_6" cx="0" cy="0" r="1" gradientUnits="userSpaceOnUse" gradientTransform="translate(-0.215999 15.468) scale(19.944 19.944)">
<stop stop-color="#FF487B"/>
<stop offset="0.36" stop-color="#5ADEF9"/>
<stop offset="1" stop-color="white"/>
</radialGradient>
<clipPath id="clip0_0_6">
<rect width="202.008" height="18" fill="white"/>
</clipPath>
</defs>
</svg>
