<svg preserveAspectRatio="none" width="100%" height="100%" overflow="visible" style="display: block;" viewBox="0 0 32 44" fill="none" xmlns="http://www.w3.org/2000/svg">
<path id="Vector" d="M27.3396 4.72522C24.2264 1.5687 20.4528 0 16 0C11.5472 0 7.77359 1.5687 4.66038 4.72522C1.54717 7.88174 0 11.7078 0 16.2226C0 18.3461 0.377359 20.3357 1.13208 22.2104C1.88679 24.0852 2.9434 25.7496 4.28302 27.2035V44L16 40.0974L27.717 44V27.2035C29.0566 25.7496 30.0943 24.0852 30.8679 22.2104C31.6226 20.3357 32 18.327 32 16.2226C32 11.7078 30.4528 7.88174 27.3396 4.72522ZM23.5472 37.8974L16 35.7548L8.45283 37.8974V30.4557C9.56604 31.0678 10.7736 31.5652 12.0377 31.9096C13.3019 32.2539 14.6226 32.4261 16 32.4261C17.3774 32.4261 18.6981 32.2539 19.9623 31.9096C21.2264 31.5652 22.4151 31.0678 23.5472 30.4557V37.8974ZM23.4717 16.2035C23.4717 16.567 23.434 16.9304 23.3774 17.2939L25.6792 19.2835L23.4528 23.1287L20.6038 22.2104C20.3208 22.4209 20.0189 22.593 19.7359 22.7652C19.4528 22.9374 19.1509 23.0713 18.8302 23.2052L18.2075 26.2087H13.7736L13.1887 23.2052C12.8679 23.0904 12.566 22.9374 12.283 22.7652C12 22.593 11.717 22.4209 11.4151 22.2104L8.54717 23.1287L6.33962 19.2835L8.62264 17.2939C8.56604 16.9304 8.5283 16.567 8.5283 16.2035C8.5283 15.84 8.56604 15.4765 8.62264 15.113L6.33962 13.1235L8.54717 9.29739L11.4151 10.1774C11.717 9.98609 12 9.79478 12.283 9.64174C12.566 9.4887 12.8679 9.33565 13.1887 9.22087L13.7736 6.21739H18.2075L18.8302 9.22087C19.1509 9.33565 19.4528 9.4887 19.7359 9.64174C20.0189 9.79478 20.3019 9.98609 20.6038 10.1774L23.4528 9.29739L25.6792 13.1235L23.3774 15.113C23.434 15.4765 23.4717 15.84 23.4717 16.2035Z" fill="var(--fill-0, #3CA8DE)"/>
</svg>
