<svg preserveAspectRatio="none" width="100%" height="100%" overflow="visible" style="display: block;" viewBox="0 0 83.3867 93.1707" fill="none" xmlns="http://www.w3.org/2000/svg">
<g id="Polygon 1" filter="url(#filter0_d_0_5)">
<path d="M40.5 3.58519L40.7598 3.15798L40.5 3L40.2402 3.15798L40.5 3.58519ZM77.5 26.0852H78V25.8041L77.7598 25.658L77.5 26.0852ZM40.5 89.5852L40.2402 90.0124L40.5005 90.1707L40.7606 90.0119L40.5 89.5852ZM3.5 67.0852H3V67.3663L3.24021 67.5124L3.5 67.0852ZM3.5 26.0852L3.24021 25.658L3 25.8041V26.0852H3.5ZM77.5 66.9327L80.3867 61.9327H74.6132L77.5 66.9327ZM40.5 3.58519L40.2402 4.0124L77.2402 26.5124L77.5 26.0852L77.7598 25.658L40.7598 3.15798L40.5 3.58519ZM70.491 71.2699L70.2304 70.8432L40.2394 89.1585L40.5 89.5852L40.7606 90.0119L70.7516 71.6966L70.491 71.2699ZM40.5 89.5852L40.7598 89.158L3.75979 66.658L3.5 67.0852L3.24021 67.5124L40.2402 90.0124L40.5 89.5852ZM3.5 67.0852H4V26.0852H3.5H3V67.0852H3.5ZM3.5 26.0852L3.75979 26.5124L40.7598 4.0124L40.5 3.58519L40.2402 3.15798L3.24021 25.658L3.5 26.0852ZM77.5 26.0852H77V62.4327H77.5H78V26.0852H77.5Z" fill="var(--stroke-0, #FF487B)"/>
</g>
<defs>
<filter id="filter0_d_0_5" x="0" y="-5.96046e-08" width="83.3867" height="93.1707" filterUnits="userSpaceOnUse" color-interpolation-filters="sRGB">
<feFlood flood-opacity="0" result="BackgroundImageFix"/>
<feColorMatrix in="SourceAlpha" type="matrix" values="0 0 0 0 0 0 0 0 0 0 0 0 0 0 0 0 0 0 127 0" result="hardAlpha"/>
<feOffset/>
<feGaussianBlur stdDeviation="1.5"/>
<feComposite in2="hardAlpha" operator="out"/>
<feColorMatrix type="matrix" values="0 0 0 0 1 0 0 0 0 0.282353 0 0 0 0 0.482353 0 0 0 1 0"/>
<feBlend mode="normal" in2="BackgroundImageFix" result="effect1_dropShadow_0_5"/>
<feBlend mode="normal" in="SourceGraphic" in2="effect1_dropShadow_0_5" result="shape"/>
</filter>
</defs>
</svg>
