<svg preserveAspectRatio="none" width="100%" height="100%" overflow="visible" style="display: block;" viewBox="0 0 90 90" fill="none" xmlns="http://www.w3.org/2000/svg">
<g id="stacks_30dp_1F1F1F_FILL0_wght600_GRAD-25_opsz24 2" clip-path="url(#clip0_0_41)">
<g id="Vector" filter="url(#filter0_d_0_41)">
<path d="M45.0145 49.3133L19 35.1399L45.0145 21L71 35.1399L45.0145 49.3133ZM45.0145 59.1417L20.3394 45.697L25.7496 42.2846L45.0145 52.7433L64.2829 42.2846L69.6937 45.697L45.0145 59.1417ZM45.0145 69L20.3394 55.5881L25.7496 52.1757L45.0145 62.6016L64.2829 52.1757L69.6937 55.5881L45.0145 69Z" fill="#3CA8DE"/>
</g>
<g id="Vector 6" filter="url(#filter1_d_0_41)">
<path d="M86 24.8363L86.2451 24.4005L86.5 24.5438V24.8363H86ZM45.3953 2L45.1538 1.5622L45.3977 1.42767L45.6404 1.56419L45.3953 2ZM4 24.8363H3.5V24.5411L3.75848 24.3985L4 24.8363ZM4 64.3762L3.75217 64.8105L3.5 64.6666V64.3762H4ZM45.3953 88L45.6468 88.4322L45.3977 88.5771L45.1475 88.4343L45.3953 88ZM86 64.3762L83.1299 69.3858L80.2265 64.3955L86 64.3762ZM86 24.8363L85.7549 25.2721L45.1502 2.43581L45.3953 2L45.6404 1.56419L86.2451 24.4005L86 24.8363ZM45.3953 2L45.6368 2.4378L4.24152 25.2741L4 24.8363L3.75848 24.3985L45.1538 1.5622L45.3953 2ZM4 24.8363H4.5V64.3762H4H3.5V24.8363H4ZM4 64.3762L4.24783 63.942L45.6431 87.5657L45.3953 88L45.1475 88.4343L3.75217 64.8105L4 64.3762ZM45.3953 88L45.1439 87.5678L81.859 66.207L82.1104 66.6392L82.3618 67.0714L45.6468 88.4322L45.3953 88ZM86 24.8363H86.5V53.5H86H85.5V24.8363H86Z" fill="var(--stroke-0, #FF487B)"/>
</g>
</g>
<defs>
<filter id="filter0_d_0_41" x="16" y="18" width="58" height="54" filterUnits="userSpaceOnUse" color-interpolation-filters="sRGB">
<feFlood flood-opacity="0" result="BackgroundImageFix"/>
<feColorMatrix in="SourceAlpha" type="matrix" values="0 0 0 0 0 0 0 0 0 0 0 0 0 0 0 0 0 0 127 0" result="hardAlpha"/>
<feOffset/>
<feGaussianBlur stdDeviation="1.5"/>
<feComposite in2="hardAlpha" operator="out"/>
<feColorMatrix type="matrix" values="0 0 0 0 0.152941 0 0 0 0 0.470588 0 0 0 0 0.776471 0 0 0 1 0"/>
<feBlend mode="normal" in2="BackgroundImageFix" result="effect1_dropShadow_0_41"/>
<feBlend mode="normal" in="SourceGraphic" in2="effect1_dropShadow_0_41" result="shape"/>
</filter>
<filter id="filter1_d_0_41" x="0.5" y="-1.57233" width="89" height="93.1494" filterUnits="userSpaceOnUse" color-interpolation-filters="sRGB">
<feFlood flood-opacity="0" result="BackgroundImageFix"/>
<feColorMatrix in="SourceAlpha" type="matrix" values="0 0 0 0 0 0 0 0 0 0 0 0 0 0 0 0 0 0 127 0" result="hardAlpha"/>
<feOffset/>
<feGaussianBlur stdDeviation="1.5"/>
<feComposite in2="hardAlpha" operator="out"/>
<feColorMatrix type="matrix" values="0 0 0 0 1 0 0 0 0 0.282353 0 0 0 0 0.482353 0 0 0 1 0"/>
<feBlend mode="normal" in2="BackgroundImageFix" result="effect1_dropShadow_0_41"/>
<feBlend mode="normal" in="SourceGraphic" in2="effect1_dropShadow_0_41" result="shape"/>
</filter>
<clipPath id="clip0_0_41">
<rect width="90" height="90" fill="white"/>
</clipPath>
</defs>
</svg>
