<svg width="145" height="30" viewBox="0 0 145 30" fill="none" xmlns="http://www.w3.org/2000/svg">
<g clip-path="url(#clip0_7069_19)">
<path d="M20.472 5.51634L14.9676 0L0 15L14.9676 30L20.472 24.4902L11.0023 15L20.472 5.51634Z" fill="white"/>
<path d="M29.1167 19.9869C26.358 19.9869 24.121 17.7451 24.121 14.9804C24.121 12.2157 26.358 9.97386 29.1167 9.97386C31.445 9.97386 33.4081 11.5752 33.9559 13.7386H42.8191L29.1037 0L14.1361 15L29.1037 30L42.8256 16.2484H33.9494C33.3885 18.3987 31.4385 19.9869 29.1167 19.9869Z" fill="white"/>
<path d="M60.8618 11.3333H52.8856V3.90845H49.7812V13.7516H60.8618V11.3333Z" fill="white"/>
<path d="M65.6879 3.90845H62.5705V13.7516H65.6879V3.90845Z" fill="white"/>
<path d="M70.9576 8.29407L75.5098 13.7516H79.1751L83.7273 8.25485V13.7516H86.8317V3.90845H83.7273L77.3294 11.5882L70.9576 3.90845H67.8532V13.7516H70.9576V8.29407Z" fill="white"/>
<path d="M92.2253 12.0065H98.4993L99.4906 13.7516H102.895L97.058 3.90845H93.621L87.8296 13.7516H91.234L92.2188 12.0065H92.2253ZM95.3493 6.47054L97.3254 9.94113H93.3927L95.3493 6.47054Z" fill="white"/>
<path d="M54.366 18.7059C55.1095 18.5098 56.0356 18.4053 57.1443 18.4053C58.09 18.4053 58.8531 18.4772 59.4335 18.6275C60.0139 18.7778 60.4639 18.987 60.7835 19.268C61.1031 19.5491 61.3313 19.8693 61.4618 20.2223H64.6575C64.5988 19.3138 64.2727 18.5425 63.6857 17.902C63.0988 17.2615 62.264 16.7778 61.1813 16.4445C60.0987 16.1112 58.7487 15.9478 57.1378 15.9478C55.8856 15.9478 54.7573 16.0393 53.7465 16.2288C52.7356 16.4183 51.8747 16.719 51.1573 17.1373C50.4399 17.5556 49.8855 18.0981 49.5007 18.7582C49.116 19.4249 48.9203 20.2288 48.9203 21.1765C48.9203 22.1242 49.116 22.9281 49.5007 23.5817C49.8855 24.2353 50.4399 24.7647 51.1573 25.1634C51.8747 25.5687 52.7356 25.8562 53.7465 26.0393C54.7573 26.2157 55.8856 26.3072 57.1378 26.3072C58.7487 26.3072 60.0922 26.1504 61.1683 25.8432C62.2509 25.5295 63.0792 25.0654 63.6662 24.451C64.2531 23.8366 64.5727 23.0785 64.6379 22.1765H61.4422C61.3118 22.4902 61.0835 22.7844 60.7639 23.0393C60.4444 23.3007 59.9944 23.5033 59.4205 23.6536C58.8465 23.804 58.0835 23.8759 57.1378 23.8759C56.0291 23.8759 55.103 23.7778 54.3595 23.5752C53.616 23.3791 53.0617 23.0785 52.703 22.6798C52.3443 22.2811 52.1616 21.7844 52.1616 21.1765C52.1616 20.5425 52.3443 20.0196 52.703 19.6079C53.0617 19.1961 53.616 18.8889 54.3595 18.6863L54.366 18.7059Z" fill="white"/>
<path d="M77.9099 19.8954H69.138V16.2222H66.0401V26.0653H69.138V22.3137H77.9099V26.0653H81.0077V16.2222H77.9099V19.8954Z" fill="white"/>
<path d="M87.81 16.2222L82.0186 26.0653H85.423L86.4078 24.3202H92.6818L93.6731 26.0653H97.0775L91.2405 16.2222H87.8035H87.81ZM87.5752 22.2548L89.5318 18.7843L91.5079 22.2548H87.5752Z" fill="white"/>
<path d="M110.141 16.5359C109.469 16.3267 108.713 16.2222 107.865 16.2222H98.0884V26.0653H101.186V22.9607H106.306C107.049 22.9607 107.604 22.9934 107.976 23.0588C108.347 23.1241 108.595 23.2483 108.719 23.4248C108.843 23.6013 108.902 23.8627 108.902 24.196V26.0653H112.006V23.8627C112.006 23.3725 111.882 22.9999 111.641 22.745C111.399 22.4901 110.982 22.3137 110.402 22.2091C110.199 22.1764 109.971 22.1437 109.723 22.1241C109.86 22.098 109.991 22.0718 110.121 22.0457C110.545 21.9411 110.923 21.7908 111.249 21.5947C111.582 21.3986 111.843 21.1176 112.026 20.7712C112.215 20.4182 112.306 19.9803 112.306 19.464C112.306 18.6666 112.11 18.0326 111.726 17.5686C111.341 17.098 110.806 16.7581 110.134 16.549L110.141 16.5359ZM107.865 20.7712H101.186V18.7647H107.865C108.269 18.7647 108.595 18.8365 108.843 18.9869C109.084 19.1372 109.208 19.3856 109.208 19.732C109.208 20.0784 109.084 20.3529 108.843 20.5228C108.602 20.6928 108.276 20.7777 107.865 20.7777V20.7712Z" fill="white"/>
<path d="M116.923 16.2222H113.826V26.0653H124.9V23.647H116.923V16.2222Z" fill="white"/>
<path d="M129.726 16.2222H126.608V26.0653H129.726V16.2222Z" fill="white"/>
<path d="M134.996 23.647V21.928H143.167V20.366H134.996V18.6535H144.987V16.2222H131.898V26.0653H145V23.647H134.996Z" fill="white"/>
</g>
<defs>
<clipPath id="clip0_7069_19">
<rect width="145" height="30" fill="white"/>
</clipPath>
</defs>
</svg>
